<svg id="Layer_1" data-name="Layer 1" xmlns="http://www.w3.org/2000/svg" viewBox="0 0 100 100"><defs><style>.cls-1,.cls-2{fill:none;stroke:#b9375b;stroke-linecap:round;stroke-linejoin:round;}.cls-1{stroke-width:2px;}.cls-3{fill:#b9375b;}</style></defs><path class="cls-1" d="M50,2.5h0A38.72,38.72,0,0,1,88.72,41.22V97.5a0,0,0,0,1,0,0H11.28a0,0,0,0,1,0,0V41.22A38.72,38.72,0,0,1,50,2.5Z"/><path class="cls-2" d="M53.11,84.48c1.34.21,2.71-.58,3.87-1.13A21.59,21.59,0,0,1,61.28,82l3.52-.84.88-.2c.36-.11.72-.2,1.08-.28s.9-.14,1.26-.21a24.52,24.52,0,0,0,8.71-3.11,7.8,7.8,0,0,0,.84-.68h0a.58.58,0,0,0-.33-1l-.11,0c-3.72-.2-7.21,1.73-10.84,2.18L65.22,78c-.36.07-.72.12-1.08.17l-1,.16a28.15,28.15,0,0,1-4.79.3,43.15,43.15,0,0,1-6.81-.47c-1-.18-3.33-.88-2-2.24a36.72,36.72,0,0,1,4.69-3.51l1.51-1.11c.41-.31.84-.57,1-1.1a1.44,1.44,0,0,0-.1-1.15c-.26-.34-.61-.27-1-.22a13.41,13.41,0,0,0-4.13,1.55A29.4,29.4,0,0,1,47.17,72c-1.22.37-6.57,1.47-6.57,1.47-5.43.88-14.11,10.7-17,12.91a.91.91,0,0,0-.22,1.22c1.51,2.32,3.32,4.37,4.84,6.62l.42.56a1.06,1.06,0,0,0,1.58.11l.63-.66c2.92-2.86,5.48-7.83,10-7.54l1.79.3c1.77.31,3.53.6,5.44,1a9.8,9.8,0,0,0,6.29-.54c3.69-1.42,7.27-4.67,11-6.4"/><path class="cls-2" d="M70.72,76.74c.56-.61,2.5-1.16,2.08-2.23a1.37,1.37,0,0,0-1-.55c-2.1.12-7.27,3.13-7.61,3.22s-.81.39-1.22.58-1.12.56-1.51.78"/><path class="cls-2" d="M70.15,74.25c.32-1.14-.84-1.6-1.83-1.32a14.44,14.44,0,0,0-2.56,1.14l-.86.44a7,7,0,0,1-.91.33l-.71.24a7.07,7.07,0,0,0-.69.27c-1.44.59-2.83,1.21-4.21,1.93-.89.46-1.85.74-2.71,1.23"/><path class="cls-2" d="M64.38,74.68c0-.23-.22-.41-.5-.56-.59-.3-2.16.42-2.86.86-1.12.72-6.93,3.21-7.19,3.47"/><path class="cls-2" d="M48.37,33.43s-11,9.26-6.9,16.06c2.13,3.54,5.82,5.83,9.34,7.8,4,2.22,8.67,4.11,10.17,8.81s-1,8.79-3.7,12.44"/><path class="cls-2" d="M41.52,37.89A1.85,1.85,0,1,1,39.67,36,1.84,1.84,0,0,1,41.52,37.89Z"/><circle class="cls-2" cx="44.48" cy="44.76" r="1.84"/><circle class="cls-2" cx="38.72" cy="52.76" r="1.84"/><circle class="cls-2" cx="51.98" cy="53.98" r="1.84"/><path class="cls-2" d="M55.67,64.08a1.85,1.85,0,1,1-1.85-1.84A1.85,1.85,0,0,1,55.67,64.08Z"/><path class="cls-2" d="M67.16,67.77a1.85,1.85,0,1,1-1.84-1.84A1.84,1.84,0,0,1,67.16,67.77Z"/><path class="cls-3" d="M58.22,23S57.69,27,55.73,27a5.42,5.42,0,0,1,2.49,4.17A5.46,5.46,0,0,1,60.49,27C58.52,27,58.22,23,58.22,23Z"/><path class="cls-3" d="M29.28,35.1s-.7,5.37-3.3,5.37c0,0,3.3,2,3.3,5.54a7.27,7.27,0,0,1,3-5.54C29.68,40.47,29.28,35.1,29.28,35.1Z"/><path class="cls-3" d="M39.74,60.41s-.7,5.37-3.3,5.37c0,0,3.3,2,3.3,5.54a7.27,7.27,0,0,1,3-5.54C40.14,65.78,39.74,60.41,39.74,60.41Z"/><path class="cls-3" d="M65.46,42.89s-.69,5.37-3.3,5.37c0,0,3.3,2,3.3,5.54a7.27,7.27,0,0,1,3-5.54C65.87,48.26,65.46,42.89,65.46,42.89Z"/><path class="cls-3" d="M27.46,19.08a1.47,1.47,0,0,1-1.06-2.51A37.68,37.68,0,0,1,48,5.47a1.48,1.48,0,0,1,.44,2.92A34.76,34.76,0,0,0,28.51,18.64,1.44,1.44,0,0,1,27.46,19.08Z"/><path class="cls-3" d="M19.21,31a1.47,1.47,0,0,1-1.37-2,36.7,36.7,0,0,1,3.62-6.45,1.48,1.48,0,0,1,2.44,1.67,33.78,33.78,0,0,0-3.31,5.87A1.49,1.49,0,0,1,19.21,31Z"/></svg>